<svg xmlns="http://www.w3.org/2000/svg" xmlns:xlink="http://www.w3.org/1999/xlink" height="546.4" preserveAspectRatio="xMidYMid meet" version="1.0" viewBox="23.8 -47.1 480.4 546.4" width="480.4" zoomAndPan="magnify"><g clip-rule="evenodd" fill-rule="evenodd"><g id="change1_1"><path d="M263.2,116.9c9.3-69.9,99.7-164,167.3-73.2 c73.7,99.1,5.4,353.4-136.6,367.5C158.8,424.6,49.8,213.8,92.6,102.3C136-11,228.4,30.5,263.8,117.3" fill="#EFD096"/></g><g id="change2_1"><path d="M218.4,221.4c-8.8-20.6-22.2-37.4-37.2-47 c-10-6.4-20.6-9.5-31-8.4c-17.7,1.9-34.3,16-45.9,46.5c-14.8,38.7-3.1,94.6,23.8,139.7c26.8,44.9,68.7,79.3,115.3,74.6 c49.1-4.9,85.2-51.6,102.9-105.3c17.8-54,17.2-115.4-8.4-149.8c-9.1-12.2-18.7-19.5-28.4-22.9c-15.4-5.3-30.8-0.8-44.2,8.7 c-20.3,14.4-35.9,40.3-39.4,62.9l0,0c0.7,1.8-0.1,3.8-1.9,4.6c-1.1,0.5-2.4,0.3-3.3-0.4C219.2,224.2,218.3,222.9,218.4,221.4z M177.8,164.5l-0.6-0.4c-10.9-7-22.6-10.5-34-9.2c-19.3,2.1-37.5,17.5-50.3,50.9c-16.2,42.3-3.4,103.3,26,152.5 c29.2,49,75,86.5,125.9,81.5c53.6-5.3,93-56.3,112.4-115c19.4-58.9,18.7-125.9-9.2-163.5c-9.9-13.4-20.5-21.3-31.1-25 c-16.8-5.9-33.8-0.9-48.5,9.5c-3.3,2.4-6.6,5-9.7,7.9c0.8-0.6,1.6-1.2,2.5-1.8c15.3-10.9,33.1-15.7,50.6-9.6 c10.8,3.8,21.7,11.7,31.8,25.3c26.7,35.9,28,99.9,9.4,156.2c-18.6,56.5-57.2,105-108.8,110.1c-49.1,4.9-93.7-30.7-122-78 C93.9,308.8,82.1,250.4,97.6,210c13-33.9,32.1-48.9,51.8-51C158.8,158,168.5,160,177.8,164.5z M177.7,156.2 c-1.6-1.2-3.3-2.3-4.9-3.4c-12-7.6-24.8-11.5-37.3-10.1c-21.1,2.2-41.1,19.1-55.1,55.6c-17.7,46.1-3.7,112.7,28.3,166.5 c31.9,53.5,81.9,94.4,137.5,88.9c58.6-5.8,101.6-61.4,122.7-125.5c21.2-64.3,20.4-137.4-10.1-178.4c-10.9-14.6-22.4-23.3-34.1-27.4 c-18.5-6.4-37-1-53.1,10.4c-5.4,3.8-10.5,8.4-15.3,13.4c2.5-2.2,5.1-4.3,7.8-6.2c16.6-11.8,35.8-17.1,54.9-10.4 c11.8,4.1,23.5,12.8,34.5,27.5c29,39,30.4,108.6,10.2,169.9c-20.3,61.5-62.2,114.2-118.3,119.8c-53.4,5.3-101.9-33.4-132.6-84.9 c-30.6-51.2-43.4-114.7-26.5-158.6c14.1-36.7,34.9-53.1,56.1-55.3C154.2,146.6,166.3,149.7,177.7,156.2z M177.8,147.7 c-3.2-2.7-6.5-5.1-9.8-7.2c-13.1-8.4-27.1-12.5-40.8-11.1c-23.1,2.5-45,20.9-60.3,60.8c-19.3,50.3-4.1,123,30.9,181.7 c34.9,58.4,89.5,103.1,150.1,97.1c63.9-6.3,110.9-67,134-137c23.1-70.2,22.2-150-11-194.7c-11.9-16-24.5-25.5-37.3-30 c-20.2-7-40.6-1.1-58.2,11.4c-7.8,5.5-15,12.4-21.5,20c4.3-4.3,8.9-8.2,13.7-11.6c18-12.8,38.9-18.5,59.5-11.3 c12.8,4.4,25.5,13.8,37.4,29.8c31.6,42.5,33.1,118.2,11.1,184.8c-22,66.9-67.6,124.2-128.7,130.3c-58.1,5.8-110.8-36.4-144.2-92.3 c-33.2-55.7-47.2-124.8-28.9-172.6c15.3-39.9,37.8-57.6,60.9-60.1c14-1.5,28.4,2.6,41.8,11.2C176.9,147.1,177.4,147.4,177.8,147.7z M178.1,139c-4.9-4.5-10.1-8.5-15.3-11.9c-14.3-9.1-29.7-13.7-44.7-12.1c-25.3,2.7-49.2,22.8-65.9,66.5 c-21.1,54.9-4.5,134.2,33.7,198.2c38,63.7,97.7,112.5,163.8,105.9c69.8-6.9,121.1-73.1,146.2-149.5 c25.2-76.6,24.2-163.6-12.1-212.4c-13-17.5-26.8-27.9-40.8-32.8c-22.1-7.7-44.4-1.2-63.7,12.5c-10.5,7.5-20.1,17.1-28.4,27.9 c6.2-6.9,13-13.2,20.3-18.3c19.5-13.9,42.1-20.1,64.5-12.3c13.9,4.8,27.7,15,40.6,32.4c34.4,46.2,35.9,128.6,12.1,201.1 c-24,72.7-73.5,135.2-139.9,141.8c-63.2,6.3-120.5-39.6-156.8-100.4c-36.2-60.6-51.4-135.8-31.4-187.8c16.6-43.3,41-62.6,66.1-65.3 c15.2-1.6,30.8,2.9,45.3,12.1C173.9,136,176,137.4,178.1,139z M218.2,182.5c-13-26.7-31.4-48.3-51.7-61.3 c-15.8-10.1-32.7-14.9-49.2-13.2c-27.2,2.9-53.7,23.9-71.8,70.9c-21.7,56.6-5.1,138.4,34.2,204.3 c39.5,66.2,101.8,116.1,170.6,109.3c72.3-7.2,126.1-75.2,152.2-154.3c26-78.9,24.3-168.5-13.1-218.8c-14-18.9-29-30-44.1-35.2 c-24.3-8.4-48.9-1.7-70,13.4C247.7,117.3,226,151.1,218.2,182.5z" fill="#A87957"/></g></g></svg>