<svg xmlns="http://www.w3.org/2000/svg" xmlns:xlink="http://www.w3.org/1999/xlink" preserveAspectRatio="xMidYMid meet" version="1.0" viewBox="0.7 0.3 445.6 445.3" zoomAndPan="magnify" style="fill: rgb(0, 0, 0);" original_string_length="39858"><g id="__id139_sem72lpx3v"><path d="M407.1,349.4c-1.7,2.4-3.4,4.8-5.1,7.1c-8.2,9.1-18.7,14.6-31.3,16.4c-5.2,0.7-12,1.5-18.5,1 c-3.7-0.3-7.4-1.2-11-2c-2.4-0.6-5-1.2-7.5-1.6c-7.9-1.3-10-0.5-13,5.2c-1.3,2.4-2.1,5.6-2.4,9.5c-1,13,1,25.5,6,37.1 c-0.5,0.3-1.1,0.5-1.6,0.8c-5.1-11.9-7.2-24.7-6.2-38c0.3-4.1,1.2-7.5,2.6-10.2c3.6-6.8,6.8-7.4,14.9-6.1c2.6,0.4,5.1,1,7.6,1.6 c3.5,0.9,7.1,1.7,10.7,2c6.3,0.5,12.7-0.2,18.1-1c12.5-1.7,22.8-7.3,30.8-16.5C403.2,352.6,405.1,350.9,407.1,349.4z M296.1,392.4 c-2.5-7-5.2-14.2-12.2-18c-4.2-2.3-8.9-3.7-13.4-5c-0.9-0.3-1.7-0.5-2.6-0.8c-8.9-2.8-17-6-24.6-9.8c-7.5-3.8-13.9-5.3-20.2-4.7 c-5.6,0.5-11.2,2-17.2,4.6c-5.4,2.3-11,4.6-16.4,6.9c-6.5,2.7-13.3,5.5-19.9,8.4l-0.9,0.4c-7.4,3.2-15.1,6.6-21.6,12 c-4.5,3.7-8.1,8.3-10.7,13.7c-1.7,3.5-3.4,7.2-5,10.7c-1.4,3-2.8,6-4.2,9c-0.7,1.4-1.4,2.7-2.1,4c0.5,0.3,1.1,0.5,1.6,0.8 c0.7-1.3,1.4-2.6,2.1-4c1.4-3,2.8-6,4.2-9.1c1.6-3.5,3.3-7.1,5-10.6c2.5-5.2,6-9.6,10.3-13.2c6.3-5.2,13.9-8.5,21.2-11.8l0.9-0.4 c6.6-2.9,13.3-5.7,19.8-8.4c5.4-2.2,11-4.5,16.4-6.9c5.8-2.5,11.3-4,16.7-4.5c5.9-0.6,12.1,0.9,19.2,4.5c7.7,3.9,15.8,7.1,24.8,9.9 c0.9,0.3,1.7,0.5,2.6,0.8c4.5,1.3,9,2.7,13,4.9c6.4,3.5,8.9,10.4,11.4,17.1l0.2,0.6c4.8,13.1,9,25,12.7,36.2 c0.5-0.2,1.1-0.4,1.6-0.7c-3.7-11.2-7.8-23-12.6-36.1L296.1,392.4z M132.4,377.3c4.7-7.3,12.4-11.1,19.9-14.7l0.2-0.1 c5.4-2.7,12.6-6.1,20-9.1l1.4-0.6c7.3-3,14.8-6,22.4-8.1c11.4-3.2,22.8-8.3,34.8-15.7c5.1-3.2,10.3-6,16.8-5.6 c6,0.4,10.9,3.1,15.8,6c1.8,1.1,3.5,2.2,5.3,3.3c5.4,3.5,10.9,7,17.2,9l2.2,0.7c8.3,2.6,16.9,5.2,25.9,5.1c3.7,0,6.8-1.2,9.3-3.5 c2.8-2.6,5.6-5.6,8.2-8.9c6.1-7.7,11.3-14.5,15.9-20.8c3.9-5.3,7.9-12,8.1-20.6c0.2-11-4.5-19.2-14.6-25.1l-0.3-0.2 c-4.8-2.8-9.8-5.8-14.5-9c-6.5-4.6-11.4-10.9-15.7-17c-1.6-2.3-3.1-4.5-4.7-6.8c-3.5-5.1-7.1-10.3-10.9-15.4 c-4.3-5.8-9.3-8.3-15.2-7.8h-0.1c-0.1,0-0.3,0-0.5,0c-2.6,0.8-5.2,1.7-7.8,2.5c-5.8,1.9-11.5,3.7-17.3,5.6 c-8.9,3-16.4,8.6-24.4,18.2c-3.5,4.2-7.8,9.2-12.3,13.6c-3.3,3.2-8.1,4.9-14.5,5c-11.6,0.2-25.2,0-38.5-3.4 c-3.6-0.9-7.2-2.1-10.7-3.2c-2.8-0.9-5.8-1.9-8.7-2.7c-9-2.5-17.4-1.7-24.9,2.6c-8.7,4.9-17.4,10.1-25.9,15.2 c-4.9,2.9-9.8,5.8-14.7,8.7c-11.1,6.5-19.8,15.4-26.5,27.1c-3.1,5.4-4.9,11.3-5.2,17.4c-0.5,8.2,0.1,17,2,27.7 c0.8,4.8,1.4,9.7,2,14.5c0.2,2,0.5,4,0.7,6c0.7,0.8,1.4,1.6,2.1,2.5c0-0.3-0.1-0.7-0.1-1c-0.3-2.5-0.6-5.1-0.9-7.6 c-0.6-4.8-1.1-9.8-2-14.6c-1.8-10.5-2.4-19.2-1.9-27.3c0.3-5.8,2-11.4,5-16.6c6.5-11.4,15-20.1,25.8-26.4c4.9-2.9,9.8-5.8,14.7-8.7 c8.4-5,17.2-10.2,25.9-15.1c4.4-2.5,9.2-3.8,14.3-3.8c3,0,6.1,0.4,9.3,1.4c2.9,0.8,5.8,1.8,8.6,2.7c3.5,1.1,7.2,2.3,10.8,3.2 c13.5,3.5,27.3,3.7,39,3.5c6.9-0.1,12.1-1.9,15.7-5.5c4.6-4.5,8.9-9.5,12.4-13.8c7.8-9.4,15.1-14.8,23.6-17.7 c5.7-1.9,11.5-3.8,17.3-5.6c2.6-0.8,5.1-1.6,7.7-2.5c0.1,0,0.2,0,0.2,0c5.3-0.5,9.7,1.8,13.6,7.1c3.7,5,7.3,10.3,10.8,15.3 c1.6,2.3,3.1,4.6,4.7,6.8c4.4,6.3,9.4,12.7,16.1,17.4c4.7,3.3,9.7,6.2,14.6,9.1l0.3,0.2c9.6,5.6,14,13.1,13.8,23.6 c-0.2,8.1-4,14.5-7.7,19.6c-4.6,6.3-9.8,13.1-15.8,20.8c-2.6,3.2-5.3,6.1-8,8.7c-2.2,2-4.9,3-8.2,3.1c-8.8,0.1-17.2-2.5-25.4-5 l-2.2-0.7c-6.1-1.9-11.5-5.4-16.8-8.8c-1.8-1.1-3.5-2.3-5.3-3.4c-5.1-3.1-10.2-5.9-16.6-6.3c-7-0.5-12.4,2.5-17.8,5.9 c-11.8,7.3-23,12.4-34.3,15.5c-7.7,2.1-15.3,5.2-22.6,8.2l-1.4,0.6c-7.5,3-14.7,6.5-20.2,9.2l-0.2,0.1c-7.7,3.8-15.6,7.7-20.6,15.4 c-2.9,4.5-5.7,8.9-7.8,13.5c-4.4,9.6-9.2,17.8-14.6,24.8c0.5,0.3,1,0.6,1.5,0.9c5.4-7.1,10.2-15.3,14.7-25 C126.8,386,129.5,381.9,132.4,377.3z M402.7,280.8c0.3,2.4-0.6,5.7-4.3,7c-1.2,0.4-2.4,0.6-3.4,0.6c-3.1,0-5.7-1.8-7.5-5.3 c-2.6-4.9-2.1-10.1-1.4-14.6c0.3-2,0.8-5.1,4.1-6c0.1,0,0.3,0,0.4,0s0.2,0,0.4,0c0.1,0,0.3,0,0.5,0.1c0.5,0,1.2,0.1,1.6,0.5 C398.7,268,401.9,274,402.7,280.8z M401,281c-0.8-6.4-3.8-12-9.1-16.7c-0.1,0-0.4-0.1-0.6-0.1s-0.5,0-0.7-0.1 c-2,0.6-2.4,2.3-2.8,4.6c-0.7,4.4-1.1,9.1,1.2,13.5c2.1,4,4.9,5.2,8.8,3.9C400.5,285.2,401.2,282.9,401,281z M382.5,187.6 c4.6,4.9,5.7,11.3,3,18.1c-2.5,6.5-7,11.1-12.8,13.5c-5.4,2.1-10.2,3.4-14.7,3.9c-2.1,0.2-4.4,0.5-6.6,0.5c-3,0-6.1-0.4-9-1.8 c-11.9-5.6-14.3-17-15.2-25c-0.8-8.1-0.4-15,1.3-21.1l0.1-0.2c2.1-7.5,4.2-15.2,13.6-17.3c0.1,0,0.2,0,0.4,0c0.1,0,0.1,0,0.2,0 c4.4,0.1,8.4,1.3,12.1,3.7c9,5.8,16.2,13.7,23.2,21.2C379.6,184.5,381.1,186.1,382.5,187.6z M381.2,188.8c-1.5-1.6-2.9-3.1-4.4-4.7 c-7-7.5-14.1-15.3-22.9-21c-3.4-2.2-7.1-3.3-11.2-3.4c-0.1,0-0.1,0-0.2,0c-8.4,1.9-10.3,8.8-12.3,16.1l-0.1,0.2 c-1.6,5.9-2.1,12.6-1.2,20.5c1.2,12.1,5.8,19.6,14.2,23.6c4.7,2.2,10,1.7,14.7,1.2c4.3-0.4,8.9-1.7,14.2-3.8 c5.4-2.1,9.5-6.4,11.8-12.5C385.6,200.7,386.5,194.4,381.2,188.8z M363.5,194.1c0.9,1.2,1.2,2.9,0.9,4.8c-0.4,2.5-1.9,5-3.8,6.3 c-2,1.4-4.2,2.1-6.6,2.1c-1.3,0-2.6-0.2-4-0.6c-4.5-1.3-7.4-4.9-7.9-9.9c-0.5-4.2-0.4-10.2,5.6-13.2c0.2-0.1,0.4-0.1,0.6-0.1 c0.1,0,0.2,0,0.3,0c0.6,0.1,1.2,0.1,1.9,0.2c1.6,0.1,3.3,0.2,4.4,1.2C358.1,187.5,361.1,190.7,363.5,194.1z M362.1,195.1 c-2.4-3.3-5.2-6.4-8.3-8.9c-0.7-0.6-2.1-0.7-3.4-0.8c-0.7-0.1-1.4-0.1-2-0.2c-3.9,2-5.2,5.4-4.5,11.4c0.5,4.2,2.9,7.3,6.7,8.4 c3.4,1,6.5,0.6,9.1-1.2c1.5-1,2.7-3.1,3-5.1C362.9,197.1,362.7,195.9,362.1,195.1z M392.4,182.3c5.1,5.2,7.4,10.7,7,16.9 c-0.5,6.9-3.7,12.6-6.8,17.4c-5.5,8.4-11.5,12.9-19,14c-9.6,1.5-17.6,2.2-25.1,2.4c-0.2,0-0.4,0-0.6,0c-6.8,0-12.8-2.7-16.9-7.6 c-7.2-8.6-11.3-19.6-12.2-32.5c-0.6-9.8,0.1-19.4,2.1-28.4c1.8-7.8,4.6-15.4,13.6-18.3c0.1-0.1,0.3-0.1,0.5,0c0.1,0,0.1,0,0.2,0 c0.9,0,1.8,0,2.8,0c2.1,0,4.2,0,6.2,0.4c8.7,2.1,15.7,7.1,21.5,11.8c4.8,3.9,9.5,8.1,14,12.1l2.3,2 C385.1,175.3,388.9,178.7,392.4,182.3z M391.2,183.5c-3.5-3.6-7.3-6.9-10.5-9.8l-2.3-2c-4.5-4-9.2-8.2-13.9-12 c-5.6-4.5-12.4-9.4-20.8-11.4c-1.8-0.4-3.7-0.4-5.8-0.4c-1,0-1.9,0-2.8,0H335c-7.6,2.5-10.4,8.6-12.3,17c-2,8.9-2.7,18.3-2.1,27.9 c0.8,12.6,4.8,23.2,11.8,31.5c3.9,4.7,9.6,7.2,16.2,7c7.4-0.2,15.4-0.9,24.9-2.4c7-1.1,12.6-5.3,17.8-13.2c3-4.6,6-10.1,6.5-16.5 C398,193.4,395.9,188.3,391.2,183.5z M405.5,218.1c-4.6,10.1-9.9,19.9-14.4,28.3c-1.5,2.7-2.7,3.7-4.5,3.7c-1.1,0-2.5-0.4-4.3-1.2 c-1.1-0.5-2.2-0.9-3.4-1.3c-1.4-0.5-2.7-1-4-1.6c-6.3-2.7-13.1-3-19.7-3.2c-2.7-0.1-5.5-0.2-8.2-0.5c-8.1-0.8-13.6-3.1-17.8-7.4 c-10.7-11-16.8-25.6-18-43.2c-0.8-11.9-1.3-24.6,1.2-36.9c1.3-6.3,3.5-13.3,10-17.4c1.9-1.2,4.2-1.9,6.4-2.5c1-0.3,1.9-0.6,2.9-0.9 c0.1-0.1,0.3-0.1,0.5,0c0.1,0,0.2,0,0.3,0c0.9,0.1,1.8,0.2,2.6,0.4c2,0.2,4,0.5,5.9,1.1c7.3,2.4,14.2,6,20.7,10.7 c10.6,7.7,19.8,14.7,28.2,21.6c6.4,5.2,11.5,10.1,15.6,15s6,11.7,5.1,18.5C409.8,206.7,408.1,212.5,405.5,218.1z M403.9,217.4 c2.5-5.4,4.1-11,4.8-16.3c0.8-6.4-0.9-12.6-4.7-17.2c-4-4.8-9-9.6-15.3-14.7c-8.4-6.8-17.6-13.8-28.1-21.5 c-6.3-4.6-13.1-8.1-20.2-10.4c-1.8-0.6-3.6-0.8-5.6-1.1c-0.9-0.1-1.8-0.2-2.7-0.4l0,0c-0.9,0.3-1.9,0.6-2.9,0.9 c-2.2,0.6-4.2,1.2-6,2.3c-5.9,3.7-7.9,10-9.2,16.2c-2.4,12.1-2,24.6-1.2,36.4c1.2,17.2,7.1,31.4,17.5,42.1c3.9,4,9.1,6.1,16.7,6.9 c2.7,0.3,5.5,0.4,8.1,0.5c6.8,0.3,13.7,0.5,20.3,3.4c1.3,0.6,2.6,1,4,1.5c1.1,0.4,2.3,0.8,3.4,1.3c4,1.6,4.7,1.6,6.6-1.8 C394.1,237.1,399.4,227.4,403.9,217.4z M439.1,246.5c-1.1-9.8-3.6-19.5-6-28.8l-1-3.8c-1.9-7.3-3.8-14.9-4.9-22.5 c-1.8-12.4-8.1-22.9-19.4-32.1c-3-2.5-6-5.1-8.9-7.6l-0.9-0.8c-4.8-4.2-10.4-7.7-17.7-11.2c-9.1-4.3-18-9.6-26.5-15.7 c-8.3-5.9-17.8-10-26.1-13.3c-2.6-1-4.6-2-6.5-3.1c-4.5-2.6-7.1-6.8-7.5-12.3c-1-12.5-4.7-24.3-11.2-36.3c-4.3-8-6.9-17.2-7.9-28.2 c-0.3-3.9-0.7-8.4-0.7-12.9c0-2,0.1-4.1,0.2-6.4c-1.1-0.4-2.3-0.8-3.5-1.1c-0.2,2.6-0.3,5.1-0.3,7.5c0,4.6,0.4,9.2,0.7,13.2 c1,11.5,3.7,21.2,8.3,29.6c6.3,11.5,9.8,22.9,10.8,34.9c0.6,6.7,3.8,11.9,9.3,15.1c2,1.1,4.2,2.2,6.9,3.3 c8.4,3.4,17.4,7.2,25.4,12.9c8.7,6.2,17.8,11.6,27.1,16c7,3.3,12.3,6.7,16.9,10.7l0.9,0.8c2.9,2.5,5.9,5.2,9,7.7 c10.7,8.8,16.5,18.3,18.2,29.9c1.1,7.7,3.1,15.4,5,22.8l1,3.8c2.4,9.2,4.8,18.8,5.9,28.3c0.7,6.3,2.4,10.7,7.6,13.6 c0.2-1.2,0.4-2.5,0.6-3.7C440.6,254.6,439.6,251.4,439.1,246.5z M347.2,395.4c-5.8,1.5-8.6,7.5-7.1,15c0.2,0.8,0.4,1.6,0.6,2.4 c0.5-0.3,1-0.6,1.6-1c-0.1-0.6-0.3-1.2-0.4-1.8c-1.4-6.6,0.9-11.7,5.8-13c3-0.8,6.1-1.1,9.1-1.1c0.9,0,1.7,0,2.5,0.1 c1.4,0.1,2.9,0.3,4.3,0.4c0.6-0.5,1.3-1,1.9-1.5c-2-0.2-4.1-0.5-6.1-0.6C355.4,394,351.2,394.4,347.2,395.4z M155.6,79.6 c-2.7-5.5-5.3-12.2-4.9-19.8c0.4-7.2,3.7-12.6,9.8-16.1c1.6-0.9,3.5-1.3,5.3-1.6c0.7-0.1,1.4-0.3,2.1-0.4c0.2,0,0.4-0.1,0.6,0 c0.2,0,0.4,0,0.6,0c1.5,0.4,3.1,0.7,4.6,1.1c3.5,0.8,7,1.6,10.4,3c8.5,3.6,17.9,5.3,30.4,5.7c11.9,0.3,21.4,2.3,29.6,6.2 c16.6,7.7,26,20.8,27.8,38.8c0.8,7.7,1.6,15.6,2.9,23.5c1.5,9.5-2.1,17-9.9,20.5c-4.8,2.2-9.8,4.1-14.6,5.9 c-2.9,1.1-5.8,2.2-8.7,3.4c-10.1,4.1-21,6.4-32.4,6.7c-0.4,0-0.9,0-1.4,0c-3.8,0-7.6-0.5-11.3-0.9c-1.2-0.1-2.5-0.3-3.8-0.4 c-12.1-1.3-20.1-7.6-23.8-18.8c-2.3-6.8-3.1-13.8-3.9-20.7c-0.3-2.4-0.6-4.8-0.9-7.2C162.7,97.9,159.9,88.5,155.6,79.6z M158.7,78.1 c4.5,9.3,7.4,19,9,29.8c0.4,2.4,0.6,4.8,0.9,7.3c0.8,6.6,1.6,13.5,3.8,20c3.3,9.9,10.1,15.2,20.8,16.4c1.3,0.1,2.5,0.3,3.8,0.4 c4,0.5,8.2,1,12.2,0.9c11-0.3,21.4-2.5,31.1-6.4c2.9-1.2,5.9-2.3,8.8-3.4c4.8-1.8,9.7-3.7,14.4-5.8c6.4-2.9,9.2-8.8,7.9-16.7 c-1.3-8-2.1-16-2.9-23.7c-1.7-17-10.1-28.7-25.8-36c-7.9-3.7-16.6-5.5-28.2-5.8c-13-0.4-22.8-2.2-31.7-6c-3.1-1.3-6.3-2-9.8-2.8 c-1.5-0.3-3-0.7-4.5-1c-0.7,0.2-1.4,0.3-2.1,0.4c-1.6,0.3-3.1,0.5-4.2,1.2c-5.1,2.9-7.8,7.3-8.1,13.3 C153.8,66.8,156.3,72.9,158.7,78.1z M168.2,84.9c-0.5-3.6-1-7.3-1-10.9c0-7.3,3.9-12.3,10.5-13.2l2-0.3c3.3-0.5,6.7-1,10.1-1.1 c3.6-0.1,7.4-0.1,10.9-0.1c2.4,0,4.7,0,7.1,0c0.9,0,1.8-0.2,2.7-0.4c0.4-0.1,0.9-0.2,1.4-0.3c0.1,0,0.2,0,0.3,0s0.2,0,0.3,0 c0.7,0.1,1.4,0.2,2.1,0.3c1.6,0.2,3.1,0.4,4.5,0.4c6.3,0,12.4,1.3,18.7,4c12.9,5.6,20.7,13.8,23.7,24.9c2.1,7.9,2.9,16.7,2.5,27.8 c-0.3,7.3-3.4,13.3-8.8,17.2c-6.2,4.5-13.4,8.4-22.7,12.1c-6.5,2.6-12.9,3.9-18.9,3.9c-1,0-2,0-3-0.1c-6.7-0.5-13.1-1.8-19.2-3.1 c-6-1.3-10.8-5.1-14-11c-4.2-7.7-5.2-16.2-6.1-24.5c-0.2-1.9-0.4-3.9-0.7-5.8c-0.5-3.6-0.9-7.3-1.3-10.9l-0.5-4.3 C168.7,88,168.4,86.4,168.2,84.9z M169,73.9c0,3.5,0.5,7.2,1,10.7c0.2,1.6,0.4,3.1,0.6,4.7l0.5,4.3c0.4,3.6,0.8,7.2,1.3,10.8 c0.3,1.9,0.5,3.9,0.7,5.8c0.9,8.1,1.9,16.4,5.9,23.8c2.9,5.4,7.3,8.9,12.8,10.1c5.9,1.3,12.4,2.6,18.9,3.1 c6.7,0.5,13.8-0.8,21.1-3.7c9.1-3.7,16.3-7.5,22.4-11.9c5-3.6,7.7-9.1,8-15.9c0.5-10.8-0.3-19.5-2.4-27.2 c-2.9-10.7-10.1-18.3-22.7-23.8c-6.1-2.6-12-3.9-18-3.8c-1.6,0-3.2-0.2-4.7-0.4c-0.7-0.1-1.4-0.2-2.1-0.3h-0.1l0,0 c-0.4,0.1-0.9,0.2-1.3,0.2c-1,0.2-2,0.4-3.1,0.4c-2.4,0-4.7,0-7.1,0c-1.4,0-2.7,0-4.1,0c-2.2,0-4.5,0-6.7,0.1 c-3.3,0.1-6.6,0.6-9.9,1.1l-2,0.3C169.9,63.6,169,70.9,169,73.9z M71.4,232.5l0.8-2.3c3.2-9,6.6-18.4,9.4-27.8 c1.8-6,2.6-11.1,2.4-15.8c-0.2-5.1-1.2-10.2-2.2-15.1c-0.3-1.4-0.6-2.7-0.8-4.1c-0.4-2.3-1-4.6-1.6-6.8c-0.9-3.6-1.8-7.4-2.2-11.1 c-1.1-11.7,1-23.4,3-33.6c2.6-12.9,2.6-24.8,0-36.3c-1.4-6.1-2.6-12.7-1.6-19c0.6-3.6,1.5-7,2.9-10.1c-0.9,0.8-1.9,1.6-2.8,2.3 c-0.8,2.3-1.4,4.8-1.8,7.4c-1,6.6,0.2,13.4,1.6,19.7c2.6,11.3,2.6,22.9,0,35.6c-2.1,10.2-4.2,22.2-3.1,34.1 c0.4,3.8,1.3,7.7,2.2,11.4c0.5,2.2,1.1,4.5,1.5,6.7c0.3,1.4,0.5,2.7,0.8,4.1c1,4.9,2,9.9,2.2,14.8c0.2,4.4-0.6,9.4-2.3,15.2 c-2.8,9.3-6.1,18.6-9.3,27.7l-0.8,2.3c-0.8,2.3-2,4.6-3.8,7.2c-7.9,11.9-14.5,21.6-20.8,30.7c-3.3,4.8-7.5,8.6-12.4,11.4 c-5.2,3-11.7,3.6-17.8,1.9c-3-0.9-5.7-2.3-8.1-4.2c0.2,0.9,0.5,1.8,0.7,2.7c2.1,1.4,4.4,2.5,6.8,3.2c6.5,1.9,13.5,1.2,19.1-2 c5.1-2.9,9.5-6.9,13-11.9c6.3-9.1,12.9-18.8,20.8-30.7C69.3,237.4,70.6,234.9,71.4,232.5z M188.2,103.9c0.4-7.8,3.6-14.4,9.4-19.7 c4.7-4.3,10.7-7.1,18.4-8.7c0.1,0,0.2,0,0.4,0c0.1,0,0.1,0,0.2,0h1.8c1.3,0,2.6,0,3.9,0c9.5,0.3,17.1,4.7,21.3,12.2 c5.7,10.2,5.5,21.7-0.7,31.4c-5.9,9.2-14.8,14.1-25.9,14.1c-1,0-2,0-3-0.1c-7.1-0.5-12.9-2.8-17.8-7 C190.2,120.9,187.7,113.9,188.2,103.9z M197.4,124.7c4.6,3.9,10.1,6.1,16.8,6.6c12,0.9,21.1-3.5,27.2-13.1 c5.9-9.3,6.1-19.8,0.6-29.6c-3.9-7-11-11-19.8-11.3c-1.3,0-2.5,0-3.8,0c-0.6,0-1.2,0-1.8,0c-0.1,0-0.1,0-0.2,0 c-7.4,1.5-13,4.1-17.6,8.2c-5.5,4.9-8.4,11.1-8.9,18.4C189.5,113.4,191.8,120,197.4,124.7z M179.6,117.2c-1.6-8.1-1.5-16.1-1.1-24.9 c0.3-8,3.1-13.8,8.4-17.2c3.5-2.2,7.8-4.1,13.2-5.8c3.3-1,6.8-1.6,10.1-2.2c1.5-0.2,2.9-0.5,4.4-0.8c0.1,0,0.2,0,0.4,0 c0.1,0,0.2,0,0.2,0c0.9,0.1,1.8,0.1,2.7,0.2c1.9,0.1,3.9,0.3,5.8,0.5c13.6,1.7,22.9,8,28.6,19.1c3.9,7.8,3.7,16.2,3.1,24.1 c-0.5,6.8-3,12.5-7.5,16.8c-9.8,9.6-21.1,14.5-33.6,14.5c-4.2,0-8.6-0.6-13.1-1.6C189.2,137,182.1,129.6,179.6,117.2z M181.4,116.8 c2.3,11.7,9,18.7,20.3,21.5c17.2,4.2,32.4,0,45-12.4c4.1-4,6.4-9.3,6.9-15.7c0.6-7.6,0.9-15.7-2.9-23.2 c-5.3-10.6-14.2-16.5-27.2-18.2c-1.9-0.2-3.9-0.4-5.7-0.5c-0.9-0.1-1.8-0.1-2.7-0.2H215l0,0c-1.5,0.3-3,0.5-4.4,0.8 c-3.3,0.6-6.7,1.1-9.9,2.1c-5.3,1.6-9.4,3.4-12.8,5.6c-4.8,3-7.4,8.3-7.6,15.7C179.9,101,179.8,108.9,181.4,116.8z M198.9,10.8 c2.9,2.1,6.7,4.6,10.8,6c1,0.3,2,0.5,3.1,0.5c2.1,0,4.2-0.5,5.8-1.1c2-0.8,3.4-2.2,3.9-4.1c0.5-2.1-0.1-4.4-1.7-6.3 c-2.1-2.5-4.6-4.1-7.3-5.5c-1.3,0.1-2.6,0.1-3.8,0.2c3.7,1.6,7.1,3.3,9.8,6.4c1.3,1.5,1.8,3.2,1.4,4.7c-0.3,1.3-1.3,2.3-2.8,2.9 c-2.2,0.8-5.4,1.4-7.8,0.6c-3.9-1.3-7.6-3.7-10.4-5.7c-3.1-2.2-6.2-4.7-9.2-7c-0.8,0.1-1.6,0.2-2.4,0.4c0.2,0.1,0.3,0.3,0.5,0.4 C192.1,5.7,195.4,8.3,198.9,10.8z M110.8,354.2c-2.7,3.5-5.7,6.5-8.8,8.8c-2.8,2.1-5.8,3.1-8.8,3.1s-6-1-9-3 c-10.1-6.7-13.9-24.6-10.3-34.8c3.2-9.1,8.3-17.6,15.5-25.9c9.4-10.8,21.8-16.8,33.9-21.5c3.5-1.4,7.2-2.3,10.8-3.2 c1.6-0.4,3.2-0.8,4.8-1.2c0.2-0.1,0.4-0.1,0.6,0c0.1,0,0.1,0,0.2,0c10.7,0.1,21.4,1.5,31.8,4.2c9.3,2.4,16.3,7.2,20.7,14.3 c2.4,3.9,3.1,8.1,1.9,11.5c-0.8,2.2-2.6,5.1-7.3,6.8c-3.2,1.2-6.5,2-9.8,2.8l-2,0.5c-0.9,0.2-1.8,0.5-2.8,0.7 c-6.9,1.7-13.4,3.2-19.3,7.2c-8.4,5.6-16.8,10.9-26.1,16.6C121.2,344.4,115.3,348.3,110.8,354.2z M125.1,337.9 c9.3-5.8,17.7-11,26-16.6c6.4-4.2,13.5-6,20.4-7.6c0.9-0.2,1.8-0.4,2.7-0.7l2-0.5c3.1-0.8,6.4-1.5,9.4-2.7c2.7-1,4.4-2.6,5.2-4.6 c0.8-2.4,0.3-5.5-1.6-8.5c-3.9-6.4-10-10.5-18.6-12.8c-10.1-2.6-20.6-4-31-4.1h-0.1c-1.6,0.4-3.1,0.8-4.7,1.2 c-3.5,0.8-7.1,1.7-10.4,3c-11.6,4.6-23.6,10.3-32.5,20.6c-7,8-11.8,16.1-14.9,24.8c-3.8,10.8,1.7,26,8.9,30.7 c4.8,3.2,9.4,3.2,13.8,0c2.8-2.1,5.6-4.8,8.1-8.1C112.9,345.7,119.4,341.4,125.1,337.9z M130.3,323.8c-4.5,2.9-9.6,4.5-14.5,4.5 c-0.7,0-1.4,0-2.2-0.1c-5.8-0.5-8.6-1.4-9.1-6.3c-0.3-2.8,0.2-6.1,1.4-8.8c2.9-6.7,8.5-11.5,16-13.9c4.4-1.4,9-2.5,13.5-3.6 c2-0.5,4-1,5.9-1.5c0.1,0,0.3,0,0.4,0c0.1,0,0.2,0,0.3,0c1.2,0.1,2.4,0.2,3.6,0.3c2.7,0.2,5.5,0.5,8.2,1.2c2.6,0.8,4.2,2.3,4.6,4.2 c0.4,1.8-0.6,3.8-2.6,5.3C146.9,312,138.8,318.2,130.3,323.8z M129.3,322.3c8.5-5.6,16.5-11.7,25.4-18.6c1.4-1.1,2.1-2.4,1.9-3.6 c-0.2-1.2-1.5-2.2-3.4-2.8c-2.5-0.7-5.2-0.9-7.8-1.2c-1.2-0.1-2.4-0.2-3.6-0.4h-0.1c-2,0.5-3.9,1-5.9,1.5c-4.4,1.1-9,2.2-13.4,3.5 c-7,2.2-12.2,6.6-14.9,12.9c-1.1,2.4-1.6,5.4-1.3,8c0.3,3.4,1.5,4.2,7.5,4.8C119,326.9,124.5,325.5,129.3,322.3z M205.7,98.3 c2.9-5.8,8.1-9.5,15.4-10.7c0.1,0,0.2,0,0.3,0s0.1,0,0.2,0c3.9,0.1,7.2,1.3,10.1,3.7c5.5,4.5,6.6,15.1,2.3,22.3 c-3.2,5.4-8.7,8.3-14.5,8.3c-2.7,0-5.5-0.7-8.1-2C203.6,115.8,201.3,107,205.7,98.3z M212.1,118.3c7.5,3.9,16,1.6,20.3-5.6 c4.3-7.1,2.5-16.5-1.9-20.1c-2.6-2.1-5.5-3.2-9-3.3c-0.1,0-0.1,0-0.1,0l0,0c-6.7,1.2-11.4,4.5-14.1,9.8 C204,105.6,204.2,114.1,212.1,118.3z M18,275.4c0.9,0.2,1.8,0.2,2.7,0.2c4.4,0,8.8-2,13.1-5.9c3.2-2.9,5.6-6.5,7.9-10l1.2-1.8 c1.8-2.6,3.4-5.3,5-7.9c2.4-3.9,4.9-8,7.7-11.7c4-5.3,6.4-11.3,8.7-17.1c1-2.4,1.9-4.9,3-7.3c1.1-2.3,2.1-4.7,3-7.1 c0.5-1.3,1.1-2.6,1.6-3.9c4-9.4,4.5-19.3,1.5-30.1l-0.3-1.2c-1.6-5.9-3.3-12-4.1-18c-0.6-4.8-0.5-9.9,0.3-14.9 c1-5.9,2.2-11.8,3.4-17.5c1.1-5,2.2-10.2,3.1-15.3c1.6-8.9,0.1-17.6-1.6-25.7c-1.1-5-2.2-10.8-2.4-16.2c0-1.7,0.1-3.4,0.2-5.1 c-1.3,1.2-2.5,2.3-3.8,3.5c0,0.5,0,1.1,0,1.6c0.1,5.8,1.3,11.7,2.4,16.9c1.6,7.8,3.1,16.1,1.6,24.4c-0.9,5.1-2,10.2-3,15.2 c-1.2,5.8-2.5,11.7-3.5,17.7c-0.9,5.4-1,10.9-0.3,16c0.8,6.3,2.5,12.5,4.2,18.5l0.3,1.2c2.8,10,2.3,19.1-1.4,27.8 c-0.6,1.3-1.1,2.6-1.6,3.9c-0.9,2.3-1.9,4.7-2.9,6.9c-1.1,2.5-2.1,5-3.1,7.4c-2.3,5.8-4.5,11.4-8.2,16.3c-2.9,3.8-5.5,7.9-7.9,11.9 c-1.6,2.6-3.2,5.2-5,7.8l-1.2,1.8c-2.2,3.3-4.5,6.8-7.4,9.4c-4.2,3.9-8.6,5.5-12.7,4.8c-3.9-0.8-7.4-3.9-9.8-8.7 c-1.6-3.4-3-7-4.3-10.5c-0.3-0.9-0.7-1.8-1-2.7c-0.8-2.2-1.7-4.5-2.7-6.9c0.4,4.9,1,9.6,1.7,14.4c0.9,2.4,1.9,4.9,3.1,7.2 C8.6,270.6,12.9,274.4,18,275.4z M361.2,382.9c-2.8-0.1-5.7-0.4-8.5-0.6c-3.2-0.3-6.5-0.6-9.8-0.7c-9.3-0.2-15.2,4.5-16.2,12.7 c-0.5,4-0.2,8.6,1,14c0.8,3.6,1.8,7,3.1,10.4c0.5-0.3,1-0.6,1.5-0.9c-1.2-3.2-2.2-6.5-2.9-9.9c-1.1-5.2-1.5-9.6-1-13.4 c0.9-7.2,5.9-11.2,14-11.2c0.2,0,0.3,0,0.5,0c3.2,0.1,6.5,0.4,9.7,0.7c2.8,0.3,5.8,0.5,8.6,0.6c5.6,0.2,10.8,0.2,15.9,0.1 c0.6-0.6,1.2-1.2,1.9-1.8C373.3,383.1,367.5,383.1,361.2,382.9z M182.9,18.2l0.4,0.3c4.7,4,9.5,8.2,14.5,12 c6.9,5.2,15.2,6.2,21.6,6.5c4,0.2,8.1,0.3,12.1,0.3c4.7,0.1,9.6,0.2,14.3,0.5c3.2,0.2,6.5,0.6,9.6,1c3.2,0.4,6.5,0.8,9.7,1 c0.3,0,0.6,0,0.9,0c5.8,0,9.3-3.3,10.6-9.8c1.1-5.7,1-11.3-0.4-17.3c-0.7-2.9-1.9-5.3-3.5-7.2c-1-0.2-2-0.4-3.1-0.7 c2.4,2.1,4.1,4.8,4.9,8.3c1.3,5.7,1.5,11.1,0.4,16.6c-1.2,6-4.3,8.7-9.7,8.4c-3.2-0.2-6.5-0.6-9.6-1c-3.2-0.4-6.5-0.8-9.8-1 c-4.8-0.3-9.7-0.4-14.4-0.5c-4-0.1-8.1-0.2-12.1-0.3c-6.2-0.3-14.1-1.2-20.6-6.2c-5-3.8-9.8-7.9-14.4-12l-0.4-0.3 c-2.5-2.2-5-4.4-7.5-6.7c-1.6-1.4-3.1-2.8-4.7-4.2c-0.7,0.2-1.4,0.3-2.1,0.5c1.9,1.7,3.8,3.4,5.6,5C177.9,13.7,180.4,16,182.9,18.2z M430.9,288.4c-8-8.6-13-17.9-15.4-28.5c-1.3-5.8-0.3-11.2,0.7-17c0.2-1.4,0.5-2.8,0.7-4.2c0.2-1.5,0.5-3.1,0.8-4.6 c0.8-4.9,1.6-9.9,2-14.8c0.5-6.6,0.5-13.3,0-19.9c-0.8-11.6-4.3-19.9-11.1-26.4c-13.1-12.5-26.1-22.3-39.7-30.1 c-6.7-3.8-12.6-7.5-18.3-11.3c-9.6-6.4-19.4-9.1-29.9-8.2h-0.1c-0.1,0-0.3,0-0.4,0c-10.1,2.6-16,10.2-17.7,23 c-1.3,9-1.1,18.2-0.8,25.2c0.4,8.8,0.9,19,2.9,28.7c3,15.1,9.6,28.6,19.5,40.2c7,8.3,17,10.7,25.9,12.3c10.5,1.9,16.8,7.7,19.4,17.7 c0.9,3.5,1.8,7,2.6,10.5c1.2,5,2.5,10.2,3.8,15.2c1.7,6.2,5.4,9.9,10.5,10.7c4,0.6,8.3,0.2,11.9-0.3c4.2-0.6,8.5-1.3,12.6-2.1 c3.4-0.6,6.9-1.2,10.3-1.7c4.4-0.7,6.8,0.3,8.9,3.8c0.3-0.7,0.5-1.3,0.8-2c-2.4-3.3-5.3-4.3-10-3.6c-3.5,0.5-7,1.1-10.3,1.7 c-4.1,0.7-8.4,1.5-12.6,2c-3.5,0.5-7.5,0.9-11.4,0.3c-5.6-0.9-8-5.6-9.1-9.5c-1.4-5-2.6-10.2-3.8-15.1c-0.9-3.5-1.7-7-2.6-10.5 c-2.7-10.6-9.7-17-20.8-19c-8.5-1.6-18.2-3.9-24.8-11.7c-9.7-11.4-16.1-24.7-19.1-39.4c-1.9-9.5-2.5-19.6-2.9-28.4 c-0.3-6.9-0.5-16,0.8-24.8c1.7-12.2,6.9-19,16.4-21.5c0.1,0,0.2,0,0.2,0c10.1-0.8,19.5,1.8,28.7,7.9c5.7,3.8,11.7,7.5,18.4,11.3 c13.5,7.7,26.3,17.5,39.3,29.8c6.4,6.1,9.8,14.1,10.5,25.2c0.5,6.5,0.5,13.1,0,19.6c-0.4,4.9-1.2,9.9-2,14.7 c-0.3,1.6-0.5,3.1-0.8,4.6c-0.2,1.4-0.5,2.8-0.7,4.2c-1,5.7-2.1,11.6-0.7,17.7c2.5,10.9,7.6,20.5,15.8,29.3c1.8,1.9,3.9,2.5,6,1.8 c0.2-0.7,0.5-1.5,0.7-2.2c-0.1,0-0.1,0.1-0.2,0.1C434.2,290.4,432.5,290,430.9,288.4z M158.5,219.1c-3.9-5-4.2-12.7-0.8-18.1 c4.1-6.7,10.7-10.8,19.5-12.1c2.6-0.4,5.3-0.7,7.9-0.9c3.3-0.3,6.7-0.7,10-1.3c5.9-1.1,11.9-2.3,17.7-3.6c2.5-0.6,5.1-1.1,7.6-1.6 c0.2,0,0.4-0.1,0.5,0c0.1,0,0.2,0,0.3,0c0.4,0,0.9,0.1,1.3,0.1c1,0.1,2.1,0.1,3.1,0.3c4.9,0.9,8.1,2.5,9.7,4.9 c1.2,1.8,1.6,3.9,1.1,6.2c-0.5,2.4-1.8,4.8-3.4,6.2c-12.2,10.7-25.8,20.1-40.6,27.7c-4.1,2.1-8.5,3.2-12.7,3.2 C171.8,230.2,164,226.3,158.5,219.1z M161.3,217c7.3,9.5,19.2,12.3,29.7,6.8c14.5-7.5,27.9-16.6,39.8-27.2c1-0.9,1.9-2.6,2.2-4.2 c0.3-1.5,0.1-2.6-0.6-3.6c-1.1-1.6-3.6-2.8-7.4-3.5c-0.9-0.1-1.7-0.2-2.7-0.3c-0.5,0-0.9-0.1-1.4-0.1c-2.5,0.5-5,1.1-7.4,1.6 c-5.8,1.3-11.9,2.6-17.9,3.6c-3.4,0.6-6.9,1-10.3,1.3c-2.6,0.3-5.2,0.5-7.7,0.9c-7.9,1.1-13.4,4.6-17.1,10.4 C158.1,207.1,158.3,213.1,161.3,217z M94.5,112.5c0.2-9.2,0.4-18.7,0.5-28c0-2.2-0.1-4.5-0.3-6.7c-0.2-2.5-0.4-5.2-0.3-7.8 c0.2-7.8,3.6-12.8,9.9-15c0.2-0.1,0.5-0.1,0.8-0.1c0.1,0,0.1,0,0.2,0c0.7,0,1.3,0,2,0c2.8-0.1,6.1-0.2,8.9,1.8 c3.1,2.2,6,4.5,8.1,7.4c7.9,11,14.4,19.1,21,26.3c3.6,3.9,6.3,8.7,8.2,14.7c2.5,7.5,2.9,15.1,2.9,24.2c-0.1,8.8,1.4,16.3,4.4,22.9 c3.5,7.6,8.4,11.9,15.4,13.5c8.2,1.9,16.3,1.4,23.8,0.6c5.2-0.6,10.5-1,15.7-1.4c3.4-0.3,6.7-0.5,10.1-0.8c1.7-0.1,3.4-0.4,5.1-0.6 c2.3-0.3,4.6-0.6,7-0.8c4.9-0.3,10.8-0.2,16.3,2.2c4.9,2.2,8.7,7,10.5,13.2c2.1,7.3,1.3,15.3-2.3,20.8c-3,4.5-7.2,8.2-13,11.4 c-10.6,5.9-20.2,13.3-29.2,22.6c-5.4,5.6-11.2,9.1-17.7,10.8c-5.5,1.4-11.4,2.7-17.7,2.7c-1.8,0-3.7-0.1-5.6-0.4 c-6.7-0.9-12.3-1.9-17.7-4.2c-3.5-1.5-7.1-3.2-10.4-4.9c-3.2-1.5-6.4-3.1-9.7-4.6c-6.3-2.8-11.4-3.4-16.5-2.1 c-3.7,1-7.4,1.8-11.1,2.5c-1.2,0.2-2.3,0.5-3.4,0.7c-4.8,1-9.2-1.1-11.8-5.8c-2.7-4.8-2.2-9.6-1.7-14.2l0.1-1.3 c0.3-2.6,0.6-5.3,0.9-7.9c0.6-4.6,1.2-9.3,1.3-13.9c0.1-4.5-0.3-9.1-0.7-13.6c-0.2-2.5-0.4-5.2-0.6-7.8c-0.1-2.4-0.2-4.9-0.2-7.4 c-0.1-4.2-0.1-8.5-0.7-12.6c-0.2-1.8-0.5-3.5-0.8-5.3c-1-7-2.1-14.2-1.9-21.4L94.5,112.5z M98.5,84.5c-0.1,9.4-0.3,18.9-0.5,28.1 l-0.2,10c-0.1,7,0.9,14.1,1.9,20.9c0.3,1.8,0.5,3.5,0.8,5.3c0.6,4.3,0.6,8.7,0.7,13c0,2.4,0.1,4.8,0.2,7.2c0.1,2.5,0.3,5.1,0.6,7.6 c0.4,4.6,0.8,9.3,0.7,14c-0.1,4.8-0.8,9.6-1.4,14.2c-0.3,2.5-0.7,5.2-0.9,7.7l-0.1,1.3c-0.4,4.3-0.9,8.4,1.3,12.1 c1.9,3.3,4.8,4.8,8,4.1c1.2-0.2,2.3-0.5,3.5-0.7c3.6-0.8,7.3-1.5,10.9-2.5c1.9-0.5,3.9-0.8,5.9-0.8c4,0,8.2,1,12.9,3.1 c3.3,1.5,6.6,3.1,9.8,4.6c3.4,1.6,6.8,3.3,10.3,4.8c5,2.2,10.3,3.1,16.8,4c7.8,1,15.1-0.5,21.9-2.2c5.9-1.5,11.1-4.7,16.1-9.8 c9.3-9.6,19.1-17.2,30-23.2c5.3-2.9,9.1-6.3,11.8-10.3c3-4.6,3.8-11.5,1.9-17.8c-1.5-5.2-4.7-9.2-8.6-11c-4.9-2.2-10.1-2.2-14.7-1.9 c-2.2,0.1-4.5,0.4-6.7,0.7c-1.7,0.2-3.5,0.5-5.2,0.6c-3.4,0.3-6.8,0.6-10.1,0.8c-5.1,0.4-10.4,0.8-15.6,1.4 c-7.8,0.8-16.2,1.3-24.9-0.7c-8.1-1.9-13.9-7-17.8-15.5c-3.2-7.1-4.8-15.1-4.7-24.4c0.1-8.7-0.4-16-2.7-23.1 c-1.8-5.5-4.3-9.9-7.5-13.4c-6.7-7.3-13.3-15.5-21.3-26.6c-1.8-2.5-4.5-4.6-7.3-6.7c-1.8-1.3-4.2-1.2-6.7-1.2c-0.7,0-1.4,0-2.1,0 l0,0c-4.8,1.8-7.1,5.5-7.3,11.7c-0.1,2.4,0.1,5,0.3,7.4C98.3,79.8,98.5,82.2,98.5,84.5z M85.2,78.3c-0.8-4.8-1.5-9.7-0.9-14.8 c0.9-6.6,3.1-11.5,6.9-15.5c3.9-4,8.9-6.5,16.1-7.9c0.2,0,0.3,0,0.5,0h0.1c13.7-0.6,23.6,5.5,28.7,17.7 c4.5,10.7,10.8,20.5,16.9,29.6c5.9,8.9,7.9,18.9,9.1,28.3c0.4,2.9,0.6,5.9,0.9,8.8c0.4,3.8,0.7,7.8,1.3,11.6 c0.9,5.7,3.1,10.8,6.6,15c4.3,5.3,10.5,7.9,19.5,8.1c7.6,0.2,15.5,0,24.1-0.7c4.9-0.4,9.8-1.2,14.6-2.1c1.2-0.2,2.4-0.4,3.6-0.6 c2.6-0.4,5.3-1.1,7.9-1.7c7-1.7,14.3-3.5,22-1.8c7,1.5,15.2,5.9,16.9,13.7c1.4,6.4,1.4,13.3-0.1,21.5c-2.1,11.7-9.2,20.5-20.4,25.5 c-14.4,6.5-25.7,14.6-34.3,24.6c-1.6,1.8-3.3,3.4-4.9,5l-0.8,0.8c-4.5,4.3-9.2,6.8-14.3,7.8c-1.5,0.3-3,0.4-4.5,0.6 c-1.5,0.1-2.9,0.3-4.3,0.6c-3,0.6-5.9,0.8-8.8,0.8c-4.8,0-9.6-0.6-14.2-1.2c-7.7-1-14.8-3.9-21.6-6.7c-1.2-0.5-2.4-1-3.6-1.4 c-4.9-2-10.1-3.8-15.3-3.2c-4.5,0.5-9.1,2.1-13.5,3.7l-0.9,0.3c-2.3,0.8-4.7,1.8-7,2.7c-5.6,2.2-11.4,4.5-17.7,5.5 c-3.3,0.5-7.8,1.2-10.5-3c-1.1-1.8-1.7-4.3-1.7-7.5c0-4.6,0.2-8.9,0.7-12.9l0.1-0.9c0.7-5.1,1.3-10.5,2.8-15.6 c2.4-8.4,4.9-17,4.6-25.9c-0.2-4.6-0.9-9.4-1.6-14c-0.3-1.7-0.5-3.5-0.8-5.2c-0.3-2.5-0.8-5.1-1.2-7.6c-1.1-6.4-2.2-13.1-2-19.8 l0.2-4.5c0.2-4.3,0.3-8.8,0.6-13.1c0.1-1.4,0.2-2.8,0.2-4.2c0.2-4.7,0.4-9.6,1.3-14.3c1-5.2,0.4-10.2-0.2-15.5 c-0.1-1.2-0.3-2.5-0.4-3.7C85.9,82.6,85.6,80.4,85.2,78.3z M88.7,77.7c0.3,2.2,0.7,4.4,0.9,6.7c0.1,1.2,0.2,2.4,0.4,3.7 c0.6,5.3,1.2,10.9,0.1,16.6c-0.8,4.5-1.1,9.2-1.3,13.8c-0.1,1.4-0.1,2.8-0.2,4.2c-0.3,4.3-0.4,8.8-0.6,13.1l-0.2,4.5 c-0.2,6.4,0.8,12.9,1.9,19.1c0.4,2.5,0.9,5.1,1.2,7.7c0.2,1.7,0.5,3.4,0.8,5.1c0.7,4.7,1.5,9.6,1.6,14.4c0.3,9.5-2.4,18.8-4.8,27 c-1.4,4.8-2.1,10-2.7,15l-0.1,0.9c-0.5,3.8-0.7,8-0.7,12.4c0,2.6,0.4,4.5,1.2,5.7c1.3,2.1,3.5,1.9,6.9,1.4c5.9-0.9,11.2-3,16.9-5.3 c2.3-0.9,4.7-1.9,7.1-2.7l0.9-0.3c4.6-1.6,9.4-3.3,14.3-3.9c0.8-0.1,1.6-0.1,2.4-0.1c5.2,0,10.2,1.8,14.6,3.6c1.2,0.5,2.4,1,3.6,1.5 c6.6,2.7,13.5,5.6,20.7,6.5c7.6,1,14.7,1.9,22,0.4c1.6-0.3,3.2-0.5,4.7-0.6c1.4-0.1,2.8-0.3,4.1-0.5c4.4-0.9,8.5-3.1,12.5-6.9 l0.8-0.8c1.6-1.5,3.3-3.1,4.7-4.8c8.9-10.5,20.6-18.8,35.5-25.6c10.2-4.6,16.4-12.3,18.4-23c1.4-7.7,1.5-14.1,0.1-20.1 c-1.4-6.1-8.5-9.8-14.2-11c-7-1.5-13.5,0.1-20.5,1.8c-2.6,0.6-5.4,1.3-8.1,1.8c-1.2,0.2-2.4,0.4-3.6,0.6c-4.9,0.9-9.9,1.8-14.9,2.1 c-8.7,0.7-16.7,0.9-24.5,0.7c-10.1-0.2-17.1-3.2-22.1-9.4c-3.9-4.8-6.4-10.4-7.4-16.7c-0.6-3.9-1-7.9-1.3-11.8 c-0.3-2.8-0.5-5.8-0.9-8.7c-1.1-9-2.9-18.4-8.5-26.8c-6.2-9.3-12.6-19.2-17.2-30.2c-4.6-10.8-13.1-16-25.3-15.5c-0.1,0-0.2,0-0.2,0 c-6.4,1.3-10.8,3.4-14.1,6.9c-3.3,3.4-5.2,7.7-5.9,13.5C87.2,68.6,88,73,88.7,77.7z M95.1,385.3c-0.4,0-0.8,0-1.2-0.1 c-7.8-0.7-14.3-5.2-20-13.6c-4.9-7.2-7.3-15.2-8.9-21.4c-1.5-5.8-3.2-14.5-1.3-22.9c2.7-12.1,9.6-23.2,21-33.9 c5.1-4.7,10.6-8.8,16.4-12.1c2.7-1.5,5.3-3.2,7.9-4.8c8-5,16.3-10.2,26.2-12c0.1,0,0.2,0,0.3,0s0.2,0,0.2,0c1.3,0.1,2.6,0.2,3.8,0.3 c2.8,0.2,5.7,0.4,8.6,0.9c4,0.7,8,1.5,11.8,2.3c4.8,1,9.7,2,14.6,2.8c10.3,1.6,21,4.1,30,11.2l1.2,0.9c4.2,3.3,8.6,6.6,10.7,12.2 c1.9,4.8,1.6,10.3-0.8,15.5c-2.7,6.1-8,11.2-14.2,13.5c-7.3,2.8-14.9,2.8-22.2,2.8h-1.8c-7.2,0-12.9,1.4-17.5,4.2 c-11.8,7.1-21,13.2-29.2,19c-4.4,3.2-8.1,7.5-11.5,11.8c-2.3,2.8-4.4,5.9-6.4,8.8c-1.8,2.6-3.7,5.4-5.7,8 C103.9,382.9,99.6,385.3,95.1,385.3z M105.9,377.6c2-2.5,3.8-5.2,5.7-7.9c2.1-3,4.2-6.1,6.5-8.9c3.5-4.3,7.2-8.8,11.8-12.1 c8.2-5.9,17.5-12,29.3-19.1c4.8-2.9,10.8-4.4,18.4-4.4h1.8c7.5,0,14.6-0.1,21.6-2.7c5.7-2.2,10.7-6.9,13.2-12.6 c2.1-4.8,2.4-9.8,0.7-14.2c-1.9-5.1-5.9-8.1-10.2-11.4l-1.2-0.9c-8.7-6.8-19.2-9.2-29.2-10.8c-4.9-0.8-9.9-1.8-14.7-2.8 c-3.9-0.8-7.8-1.6-11.8-2.3c-2.7-0.5-5.6-0.7-8.4-0.8c-1.3-0.1-2.6-0.2-3.9-0.3h-0.1l0,0c-9.5,1.7-17.7,6.8-25.5,11.8 c-2.6,1.6-5.3,3.3-8,4.8c-5.7,3.2-11.1,7.2-16,11.8c-11.2,10.4-17.9,21.2-20.5,33c-1.8,8-0.1,16.5,1.3,22.1 c1.5,6.1,3.9,13.9,8.6,20.9c5.5,8.1,11.4,12.2,18.8,12.9C98.3,383.9,102.6,381.7,105.9,377.6z M407.5,320.6c-4.4,0-8.1,1.4-11.2,4.2 c-3.3,3-6.3,6.8-8.8,10.9c-6.8,11.4-15.7,18.4-27.2,21.4c-4.3,1.1-8.5,0.1-11.3-2.7c-2.8-2.8-3.8-6.8-2.8-11.1 c1.6-6.5,5.3-11.9,9.2-17.5l1.2-1.7c0.5-0.7,1-1.4,1.5-2.1c3-4.3,6.1-8.7,7.6-14.2c1.7-6.4,1.9-13.2,0.5-20.9 c-1-5.7-2.6-10.8-4.8-14.9c-4.1-8-12-11.7-18.5-14c-11.3-4.1-19.3-10.1-24.5-18.3c-1-1.7-2.1-3.3-3.2-4.9c-2.5-3.9-5.1-7.8-7.3-11.9 l-0.2-0.4c-5.2-9.8-10.5-19.9-13.1-30.9c-2.1-9.1-3.8-16.6-5.3-23.6c-0.2-1-0.5-2-0.7-3c-0.7-3-1.4-5.8-1.2-8.4 c0.3-3.5,1.1-6.9,2-10.4c0.6-2.3,1.1-4.7,1.6-7.1c1.4-7.6,2.2-16.6-2.1-25.8c-3.4-7.4-5.8-15.1-6.9-22.7c-1-7.1-2.7-12.7-5.1-17.1 c-7.7-13.9-20.2-22.9-37.3-26.8c-7-1.6-14.2-2.2-21.3-2.9c-3-0.3-6.1-0.5-9.2-0.9c-6.5-0.8-11.1-2.2-14.6-4.7 c-1.3-0.9-2.6-1.8-3.9-2.8c-7.5-5.2-15.2-10.6-21.9-16.9c-3.3-3.1-6.7-6.2-10.2-9.1c-1.3,0.4-2.7,0.8-4,1.2c4,3.4,8,6.8,11.8,10.4 c6.8,6.4,14.7,11.9,22.3,17.2c1.3,0.9,2.6,1.8,3.9,2.8c5.2,3.7,11.4,4.8,16.3,5.3c3.1,0.3,6.2,0.6,9.3,0.9 c6.9,0.6,14.1,1.2,20.8,2.8c16.1,3.7,27.9,12.1,35,25.1c2.2,4.1,3.8,9.2,4.8,15.9c1.1,8,3.5,15.9,7.1,23.7 c3.9,8.3,3.1,16.6,1.8,23.7c-0.4,2.3-1,4.6-1.5,6.8c-0.9,3.6-1.8,7.2-2.1,11c-0.3,3.2,0.5,6.5,1.3,9.6c0.2,1,0.5,1.9,0.7,2.9 c1.5,7,3.2,14.5,5.3,23.6c2.6,11.4,8.1,21.7,13.4,31.7l0.2,0.4c2.2,4.2,4.9,8.3,7.4,12.2c1.1,1.6,2.1,3.3,3.1,4.9 c5.6,8.9,14.2,15.4,26.3,19.7c6.2,2.2,13,5.4,16.5,12.3c2,3.8,3.5,8.5,4.4,13.9c1.3,7.1,1.1,13.4-0.5,19.3 c-1.3,4.9-4.1,8.9-7.1,13.1c-0.5,0.7-1,1.5-1.5,2.2l-1.2,1.7c-3.9,5.6-8,11.5-9.7,18.7c-1.3,5.4,0.1,10.8,3.8,14.4 c3.7,3.6,9.1,5,14.6,3.6c12.5-3.2,22.1-10.7,29.4-23c2.3-3.8,5.1-7.3,8.1-10.1c3.9-3.6,9-4.3,15.8-2.1c1.9,0.6,3.8,1.7,5.6,2.8 c0.6-1,1.1-2.1,1.6-3.1c-1.9-1.2-4-2.4-6.2-3.1C412.7,321,410,320.6,407.5,320.6z M306.9,385.5c-0.7-5.6-2.3-11.2-3.9-16.4 c-1.7-5.7-5.9-9.4-12.9-11.5c-2.8-0.8-5.6-1.5-8.4-2.2c-2.9-0.8-6-1.5-8.9-2.4c-6-1.8-12-4.8-18.5-9c-5.3-3.5-10.6-5-15.7-4.6 c-4.1,0.3-8.5,1.2-13.9,2.8c-14.8,4.4-28.8,9.8-41.8,16.1c-7.9,3.9-16.1,7.5-24,11c-2.1,0.9-4.2,1.9-6.3,2.8 c-10.1,4.5-17.8,12.2-23.3,23.3c-1.2,2.5-2.4,4.9-3.6,7.4c-2.2,4.6-4.5,9.4-7,14c-0.5,0.9-1.1,1.9-1.6,2.7c0.5,0.3,1,0.5,1.6,0.8 c0.6-0.9,1.1-1.8,1.6-2.7c2.5-4.6,4.8-9.4,7.1-14.1c1.2-2.5,2.4-4.9,3.6-7.4c5.4-10.8,12.7-18.2,22.5-22.5c2.1-0.9,4.2-1.9,6.3-2.8 c7.9-3.5,16.1-7.1,24-11c12.9-6.3,26.8-11.7,41.5-16c5.3-1.6,9.6-2.4,13.6-2.7c4.7-0.4,9.6,1.1,14.6,4.4c6.6,4.3,12.8,7.3,18.9,9.2 c3,0.9,6,1.7,9,2.4c2.7,0.7,5.5,1.4,8.3,2.2c6.4,1.9,10.2,5.3,11.7,10.3c1.5,5.1,3.1,10.6,3.8,16.1c1.3,9.8,2.9,20.2,6.2,30.1 c1.2,3.6,2.5,7.2,3.7,10.7c0.5-0.2,1.1-0.5,1.6-0.8c-1.3-3.5-2.5-7-3.7-10.5C309.8,405.5,308.2,395.2,306.9,385.5z M106.2,119.5 c-1-8.9-0.1-17.5,2.8-26.5c1.1-3.3,3.2-5.5,6.2-6.2c0.1,0,0.3,0,0.4,0s0.2,0,0.4,0c0.6,0.1,1.3,0.2,2,0.3c1.6,0.2,3.2,0.5,4.6,1.3 c4,2.4,9.2,5.7,13.9,9.6c6.4,5.3,9.7,12.8,9.8,22.5c0,2.7-0.4,5.5-0.9,8.1c-0.3,1.6-0.6,3.4-0.7,5c-0.1,1-0.2,2-0.4,3 c-0.4,3.1-0.8,6.2-0.2,9c1.4,6.1,3.9,12.1,6.1,17.5c4.3,10.1,11.7,14.7,22.7,14c2.9-0.2,5.9-0.2,8.8-0.3c5.3-0.1,10.8-0.2,16.2-1.1 c5.1-0.8,10.2-1.3,15.2-1.8c3.3-0.3,6.8-0.7,10.1-1.1c6.6-0.8,12.5-0.2,18,1.9c7.7,2.9,11.1,7.6,10.8,15.3c-0.2,4.9-2.6,9-7.7,13 c-3.1,2.5-6.3,5-9.4,7.5c-7.8,6.2-15.9,12.7-24.2,18.5c-9.1,6.4-18.3,9.5-27.7,9.5c-6.9,0-13.8-1.7-20.7-5.1 c-10-4.9-18.6-12.6-27.1-24.3c-2.4-3.3-5.4-5.6-9.1-7c-5.5-2.1-9.3-6-11.4-11.9c-3.5-9.4-3.4-19.2,0.3-30.9 c2.3-7.2,1.8-13.4-1.5-19.5C110.3,134.3,107.1,127.5,106.2,119.5z M108,119.3c0.9,7.7,4,14.3,6.9,19.7c3.5,6.4,4.1,13.2,1.7,20.8 c-3.6,11.3-3.7,20.8-0.3,29.8c2,5.4,5.3,8.9,10.4,10.8c4,1.5,7.4,4.1,9.9,7.6c8.3,11.4,16.7,18.9,26.4,23.7 c15.8,7.7,31.5,6.3,46.6-4.3c8.3-5.8,16.3-12.2,24.1-18.5c3.1-2.5,6.3-5,9.4-7.5c4.6-3.6,6.9-7.3,7-11.7c0.3-6.9-2.6-10.9-9.6-13.6 c-5.3-2-10.9-2.6-17.2-1.8c-3.4,0.4-6.9,0.8-10.2,1.1c-5,0.5-10.1,1-15.1,1.8c-5.5,0.9-11,1-16.4,1.1c-2.9,0.1-5.8,0.1-8.7,0.3 c-11.7,0.7-19.9-4.4-24.4-15.1c-2.3-5.4-4.9-11.6-6.2-17.8c-0.7-3.1-0.2-6.4,0.2-9.6c0.1-1,0.3-2,0.4-2.9c0.2-1.7,0.5-3.5,0.8-5.1 c0.4-2.6,0.9-5.2,0.9-7.8c-0.1-9.1-3.1-16.2-9.1-21.1c-4.6-3.8-9.7-7-13.7-9.4c-1.1-0.6-2.4-0.8-3.9-1c-0.7-0.1-1.4-0.2-2.1-0.3 c-2.4,0.6-4.1,2.3-4.9,5.1C107.9,102.3,107,110.7,108,119.3z M436.8,158.6c-1.2-4.1-2.6-8.2-4.1-12.3c-1-2.3-1.9-4.5-2.6-6.7 c-1.4-3.4-2.8-6.7-4.3-10c1.4,8.3,4.5,16.8,9.9,26.9C436.1,157.2,436.5,157.9,436.8,158.6z M438.8,212.1c-3.4-7.8-4.9-16.3-6.3-24.5 l-0.6-3.5c-1.5-8.6-5.3-16.2-11.6-23.3c-3-3.4-6.3-6.8-9.5-10c-2.4-2.5-5-5.1-7.4-7.7c-4.2-4.6-9.6-7.7-16-9.3 c-10.4-2.7-20.6-7.7-31.1-15.4c-5.5-4-11-7.9-16.7-11.3c-8.4-4.9-13.7-12.2-16.2-22.1c-2.3-9.3-6.1-19-11.9-30.6 c-5.5-11-7.8-20.3-7.3-29.5c0.2-3.3,0.7-6.4,1.6-9.1c-0.5-0.2-1.1-0.4-1.6-0.6c-1,2.9-1.5,6.2-1.7,9.7c-0.5,9.5,1.9,19.1,7.5,30.4 c5.8,11.4,9.5,21,11.8,30.2c2.6,10.4,8.1,18,17,23.2c5.6,3.3,11,7.2,16.5,11.2c10.7,7.8,21.1,13,31.7,15.7 c6.1,1.6,11.2,4.5,15.1,8.8c2.4,2.6,5,5.2,7.4,7.7c3.1,3.2,6.4,6.6,9.4,10c6.1,6.8,9.7,14.2,11.2,22.4l0.6,3.5 c1.4,8.3,2.9,16.9,6.4,24.9c1,2.3,2,4.6,3,7c1.9,4.4,3.9,8.9,5.9,13.4c0.1-1.3,0.1-2.7,0.1-4c-1.5-3.4-3-6.8-4.4-10.1 C440.8,216.8,439.8,214.5,438.8,212.1z M33.1,320.4c-3.2-8.9-9.4-15-19-18.8c0.3,0.8,0.6,1.5,0.9,2.3c8.3,3.6,13.6,9.1,16.4,17.2 c2.5,6.9,4,14.7,5,24.4c0.7,1,1.3,2,2,3c0-0.5-0.1-1.1-0.1-1.6C37.4,336.2,35.8,327.8,33.1,320.4z M284.7,415.4 c-11.7-15.8-25.1-26.1-41.1-31.5c-3.4-1.2-7.1-1.5-10.8-1.8c-1.6-0.1-3.3-0.3-4.9-0.5c-0.1,0-0.2,0-0.3,0s-0.3,0-0.4,0 c-2.6,0.8-5.2,1.5-7.8,2.3c-6.4,1.9-13.1,3.9-19.7,5.7c-3.1,0.8-6.6,1-9.6,1.1c-21.6,0.8-37.1,11.9-42.5,30.6 c-1,3.3-2.1,6.9-3.4,10.7c0.6,0.2,1.1,0.4,1.6,0.6c1.3-3.9,2.5-7.4,3.4-10.8c5.1-17.9,20-28.6,40.8-29.3c3.1-0.1,6.7-0.2,10.1-1.1 c6.6-1.8,13.3-3.8,19.8-5.7c2.6-0.8,5.1-1.5,7.7-2.3c0,0,0,0,0.1,0c1.6,0.2,3.3,0.4,5,0.5c3.5,0.3,7.1,0.6,10.3,1.7 c15.6,5.3,28.7,15.4,40.2,30.9c3.5,4.7,5.4,10.5,5.6,17.2c0,1,0,2-0.1,2.9c0.6-0.2,1.2-0.4,1.8-0.6c0.1-0.8,0.1-1.6,0.1-2.4 C290.4,426.5,288.4,420.4,284.7,415.4z M22.6,321c1.6,2.4,3,5,4.1,7.9c1.1,2.1,2.3,4.2,3.5,6.3c-1.7-8.6-5-15-10.5-20.2 C20.6,317,21.6,319.1,22.6,321z M320.4,56.6c1.1,2.7,2.3,5.4,3.3,8.2c0.5,1.2,0.9,2.5,1.4,3.8c1.3,3.5,2.7,7.1,3.8,10.7 c3.3,10.7,8.8,18.6,16.6,24.1c3.8,2.7,7.5,5.4,11.3,8.1c3.8,2.8,7.7,5.6,11.6,8.4c4.9,3.4,10.7,5.1,18.8,5.5l1.7,0.1 c3.6,0.2,7.3,0.3,10.9,0.7c4.1,0.4,6.7,3.3,8.9,6.3c1,1.4,1.9,2.9,2.8,4.4c0.8,1.3,1.6,2.7,2.5,4c5,7.4,9.5,13.8,13.8,19.8 c4.7,6.6,7.5,14.5,8.6,24.3c1.3,11.4,4.5,22.2,9.9,33c0-1.5-0.1-3-0.2-4.4c-4.2-9.3-6.9-18.8-8-28.7c-1.1-10.1-4-18.3-8.9-25.1 c-4.2-5.9-8.7-12.4-13.7-19.7c-0.9-1.3-1.7-2.6-2.5-3.9c-0.9-1.5-1.8-3-2.9-4.5c-2.3-3.2-5.3-6.6-10.1-7.1c-3.7-0.3-7.4-0.5-11-0.7 l-1.7-0.1c-7.8-0.4-13.3-1.9-17.9-5.2c-3.9-2.7-7.8-5.6-11.6-8.4c-3.8-2.7-7.5-5.5-11.3-8.2c-7.5-5.3-12.7-12.9-15.9-23.2 c-1.1-3.7-2.5-7.3-3.9-10.8c-0.5-1.2-1-2.5-1.4-3.7c-1-2.8-2.2-5.5-3.3-8.2c-2.9-6.9-5.9-14-6.9-21.5c-0.7-5.2-0.1-9.8,1.9-13.7 c-0.5-0.2-1-0.5-1.6-0.7c-2.1,4.2-2.8,9.1-2.1,14.7C314.4,42.4,317.5,49.6,320.4,56.6z M281,393.9c-6.5-6.7-13.8-11.7-21.8-15 c-9.6-4-19.4-7.4-27.9-10.2c-2-0.7-4.1-0.8-6.2-1c-0.9-0.1-1.8-0.1-2.8-0.2c-0.1,0-0.2,0-0.3,0s-0.3,0-0.4,0c-5,1.5-10.1,3-15.1,4.5 c-11.4,3.4-23.1,6.9-34.6,10.7c-16.2,5.4-27.4,16-33.1,31.5c-1.8,5-3.5,9.4-5.2,13.4c0.5,0.2,1.1,0.5,1.6,0.7 c1.7-4.1,3.4-8.5,5.3-13.5c5.5-14.9,16.2-25.1,31.9-30.4c11.4-3.8,23.2-7.3,34.5-10.7c5-1.5,10.1-3,15.1-4.5c0,0,0,0,0.1,0 c0.9,0.1,1.9,0.2,2.8,0.2c2.1,0.1,4,0.3,5.8,0.9c8.4,2.9,18.2,6.2,27.8,10.2c7.7,3.2,14.9,8.1,21.2,14.6 c8.6,8.9,14.6,19.3,17.9,30.9c0.7,2.4,1.2,4.8,1.6,7c0.6-0.2,1.1-0.4,1.7-0.6c-0.4-2.2-0.9-4.5-1.5-6.9 C296,413.6,289.8,402.9,281,393.9z M254.4,284.3c-5.1-5.6-7.1-15.1-4.8-23.2c1.9-6.6,6.2-11.1,12.2-12.8c0.1,0,0.3,0,0.4,0h0.1 c6.3-0.6,11.6,1.2,16.2,5.5c2.7,2.5,5.5,4.9,8.2,7.2c2.8,2.4,5.6,4.8,8.3,7.3c3.6,3.3,7.7,7.1,11,11.4c2.2,2.9,3,5.9,2.3,8.6 c-0.8,2.9-3.1,5.2-6.8,6.8c-4.4,1.9-9.1,2.8-14.4,2.8c-2.3,0-4.6-0.2-7.2-0.5C269.6,296.1,261.3,291.8,254.4,284.3z M255.7,283.1 c6.6,7.2,14.6,11.3,24.4,12.5c8.2,1,14.8,0.4,20.7-2.2c3.2-1.4,5.2-3.3,5.8-5.6c0.6-2.2-0.1-4.6-2-7.1c-3.2-4.2-7.2-7.9-10.8-11.2 c-2.7-2.5-5.5-4.9-8.3-7.3c-2.7-2.3-5.5-4.8-8.2-7.2c-4.3-3.9-9.1-5.6-14.9-5c-0.1,0-0.2,0-0.3,0c-5.3,1.5-9.2,5.6-10.9,11.6 C249.2,269.1,251,277.9,255.7,283.1z M239.5,292.2c-6-4.4-8.6-10.9-7.6-18.9c0.6-5,2-10.5,4.3-16.6c3.8-10.3,10-17.3,18.5-21.1 c2.5-1.1,5.2-1.7,7.8-2.2c1.1-0.2,2.3-0.5,3.4-0.8c0.2-0.1,0.4-0.1,0.6-0.1s0.4,0,0.7,0c10.5,0,19.5,4.4,26.6,12.9 c5.4,6.4,11.2,13.1,17.2,19.7c1.8,2,3.8,3.9,5.7,5.8c2.4,2.4,5,4.8,7.2,7.4c3.4,4,6.6,8.9,5.1,15.6c-2.1,9.1-9,13.5-15.5,16.6 c-5.2,2.5-10.6,3.3-15.6,3.3c-4,0-7.9-0.5-11.2-1.1C269.9,309.7,254,302.8,239.5,292.2z M241.6,289.3c14,10.3,29.4,17,45.8,20 c10.4,1.9,18,1.3,24.6-1.9c6-2.9,11.8-6.6,13.6-14.3c1.2-5.1-1.4-9-4.3-12.5c-2.2-2.5-4.6-4.9-7-7.2c-2-1.9-4-3.9-5.9-5.9 c-6.1-6.6-11.9-13.3-17.3-19.8c-6.7-8-14.6-11.8-24.4-11.7h-0.1c-1.1,0.3-2.2,0.5-3.3,0.8c-2.5,0.6-4.9,1.1-7.1,2 c-7.7,3.4-13.1,9.6-16.6,19c-2.1,5.9-3.5,11-4.1,15.8C234.6,280.4,236.7,285.7,241.6,289.3z M442.4,181.2c0.5,4.9,1.1,9.8,2.3,14.6 C444,190.9,443.3,186,442.4,181.2z M130.4,366.1c3-4.6,7.7-7.5,12.3-10c2.7-1.5,5.4-3,8.1-4.5c5.7-3.2,11.6-6.5,17.6-9.4 c3.1-1.5,6.9-2.1,10.5-2.8c0.7-0.1,1.4-0.2,2.1-0.4c2.6-0.5,5.3-0.8,7.9-1.1c4.3-0.5,8.7-1.1,13-2.2c10.8-2.9,19.1-10,24.4-15.1 c1.1-1,2.1-2.1,3.2-3.2c1-1,2.1-2.1,3.1-3.1c4.2-4,8.7-5.2,13.7-3.5c6.5,2.2,12.4,4.4,17.9,6.7c4.2,1.7,8.5,3.6,12.7,5.4 c3.9,1.7,8,3.5,12,5.1c14.3,5.9,27,3.8,37.9-6.2c5.2-4.8,11.1-10.6,15.4-17.7c5.2-8.6,4.2-18.8-2.4-25.4c-4.6-4.5-9.7-8.5-13.5-11.5 c-10.1-7.7-17.8-17.6-24.6-27.1c-4.1-5.8-8.7-11.7-15.8-15.1c-4.7-2.2-9.4-2.2-14.1-2.2H271c-0.1,0-0.1,0-0.2,0c-0.2,0-0.4,0-0.5,0 c-1.4,0.3-2.7,0.6-4.1,0.8c-3,0.6-6.1,1.2-9.1,2.1c-9.7,2.9-17.5,8.8-23.2,17.6c-1.5,2.3-3,4.5-4.5,6.7c-1.9,2.8-3.8,5.6-5.7,8.5 c-3.8,6-9.5,8.3-18.4,7.2c-5.9-0.7-11.9-1.5-17.7-2.4c-2.7-0.4-5.3-0.8-8-1.1c-9.6-1.3-18.9-2.8-27.8-6c-12-4.4-23.8-3.1-35,3.8 c-12.9,8-24.3,15.4-34.6,22.6c-10.6,7.5-19.1,18.1-25.2,31.7c-3.1,6.9-4,15.1-2.5,23.8c2.1,12.5,4.8,25.6,8.3,39.9 c1.6,1.6,3.2,3.2,4.8,4.8c-0.2-0.8-0.4-1.6-0.6-2.5c-3.9-15.4-6.8-29.5-9.1-42.9c-0.9-5.6-1.3-13.9,2.3-21.8 c5.8-13,13.9-23.2,24-30.3c10.3-7.2,21.6-14.6,34.4-22.5c6.3-3.9,12.8-5.8,19.4-5.8c4.1,0,8.4,0.8,12.6,2.3 c9.2,3.3,18.8,4.8,28.5,6.1c2.7,0.4,5.3,0.7,8,1.1c5.8,0.8,11.8,1.7,17.8,2.4c6.5,0.8,15.8,0.7,21.8-8.9c1.8-2.8,3.7-5.6,5.6-8.4 c1.6-2.2,3.1-4.5,4.6-6.8c5.3-8.1,12.4-13.5,21.3-16.1c2.8-0.8,5.9-1.4,8.8-2c1.3-0.3,2.7-0.5,4-0.8h0.1h0.8c4.4,0,8.6,0,12.5,1.9 c6.4,3,10.5,8.3,14.5,13.9c7,9.8,14.8,19.9,25.4,27.9c3.8,2.9,8.7,6.8,13.2,11.1c6.3,6.2,5.5,15,1.9,21c-4,6.8-9.8,12.3-14.8,17 c-9.9,9.1-21,11-34.1,5.6c-4-1.6-8-3.4-11.9-5.1c-4.2-1.8-8.5-3.7-12.8-5.4c-5.6-2.3-11.5-4.5-18.1-6.7c-6.2-2.1-12.2-0.7-17.3,4.2 c-1.1,1-2.1,2.1-3.2,3.2c-1,1-2.1,2.1-3.1,3.1c-8,7.7-15.3,12.2-22.9,14.2c-4,1.1-8.4,1.6-12.5,2.2c-2.7,0.3-5.4,0.7-8.1,1.2 c-0.7,0.1-1.4,0.2-2,0.4c-3.9,0.7-7.8,1.3-11.4,3.1c-6.1,2.9-12,6.3-17.8,9.5c-2.7,1.5-5.4,3-8.1,4.5c-5,2.7-10.2,6-13.6,11.2 c-4.9,7.5-9.7,15.4-14.2,23.4c-4.8,8.5-10,15-16,19.9c1,0.7,2,1.4,3.1,2c6-5.1,11.2-11.6,16-20.2 C120.8,381.4,125.5,373.6,130.4,366.1z M372.9,69.3c2.1,1.9,5.6,3,8.7,3c1.5,0,3-0.3,4.2-0.8c0.2-0.1,0.4-0.2,0.7-0.4 c-0.4-0.4-0.8-0.9-1.2-1.3c-0.1,0-0.1,0.1-0.2,0.1c-3.1,1.4-8.4,0.5-11-1.9c-1.2-1.1-1.2-1.6-1.2-1.7s0.2-0.5,1.5-1 c0.1,0,0.2,0,0.3,0c3.1-0.4,5.7,0.8,8.5,2.3c-1.1-1.2-2.3-2.3-3.4-3.4c-1.6-0.5-3.4-0.8-5.2-0.6c0,0,0,0-0.1,0s-0.3,0-0.5,0 c-1.6,0.6-2.5,1.4-2.7,2.4C370.9,67.3,372,68.5,372.9,69.3z M274.1,421.2c1.8,4.1,1.7,7.9-0.2,10.6c-1.6,2.3-4.4,3.5-7.8,3.5 c-0.4,0-0.8,0-1.2,0c-6.6-0.5-13.2-1.9-19.9-3.5c-8.8-2-16.2-6.2-22-12.5c-2.6-2.8-4-6.5-3.8-10c0.1-3.3,1.6-6.3,4.1-8.6 c3.1-2.8,6.6-4.6,11-5.8c0.1,0,0.3,0,0.4,0h0.1c7.3-0.6,14,1.5,20,6.2c5.3,4.2,9.5,7.8,13.1,11.4 C269.8,414.4,272.4,417.4,274.1,421.2z M272.5,421.9c-1.2-2.8-3.2-5.6-5.8-8.2c-3.5-3.5-7.6-7.1-12.9-11.2 c-5.6-4.4-11.9-6.4-18.7-5.9c-0.1,0-0.2,0-0.2,0c-4.1,1-7.4,2.7-10.2,5.3c-2.2,2-3.4,4.6-3.6,7.4c-0.1,3.1,1.1,6.2,3.4,8.7 c5.5,6,12.6,10.1,21.1,12c6.6,1.5,13.1,2.9,19.6,3.4c3.4,0.2,6-0.7,7.5-2.8C274,428.6,274,425.5,272.5,421.9z M215.9,435.4 c-9.8-3.6-17.5-4.1-24.9-1.7c-4.8,1.5-10,3.8-14,7.8c0.7,0.1,1.4,0.3,2.2,0.5c3-2.7,7.1-4.8,12.4-6.5c7-2.3,14.4-1.8,23.8,1.7 c10.1,3.7,18.5,6.4,26.5,8.4c1.6-0.1,3.2-0.3,4.8-0.4c-1.4-0.5-2.8-0.9-4.3-1.2C234.4,441.8,226,439.1,215.9,435.4z M28.9,130.2 c5,4.3,11.6,0.5,14.6-2.8c4.7-5.2,4.6-11.4,3.9-17.3c-0.4-3.3-2.9-6.3-6.7-8.1c-1.3-0.6-2.5-1.3-3.7-2.1c-0.3,0.5-0.6,1-1,1.5 c1.2,0.8,2.5,1.5,3.9,2.2c3.2,1.5,5.3,4,5.7,6.7c0.7,5.5,0.7,11.2-3.5,15.9c-2.8,3.1-8.3,5.9-12.1,2.7c-1.8-1.5-3.4-3.6-4.3-5.7 c-0.4-0.8-0.7-1.5-1-2.3c-0.4,0.7-0.7,1.4-1,2.1c0.1,0.3,0.3,0.7,0.4,1C25.2,126.3,26.9,128.5,28.9,130.2z M39.1,308.2 c-1.1-6.1-4.6-10-10.5-11.6c-1.6-0.5-3.3-0.9-5-1.4c-4.3-1.2-8.7-2.4-13-3.9c0.2,0.7,0.4,1.4,0.7,2.1c3.9,1.3,7.9,2.4,11.9,3.5 c1.6,0.5,3.3,0.9,5,1.4c5.2,1.5,8.3,4.9,9.2,10.2c1.5,8.7,2.7,15.9,3.5,22.5c1.1,8.2,2,16.6,2.9,24.8c0.7,0.9,1.4,1.8,2.1,2.7 c-1-9.1-2-18.5-3.2-27.7C41.7,324.2,40.6,317,39.1,308.2z M25.5,197c0.2,0.3,0.4,0.6,0.7,0.9c0.2,0.2,0.2,0.5,0.2,0.8 s-0.2,0.5-0.5,0.6c-0.4,0.2-0.8,0.4-1.2,0.7c-1,0.6-2,1.2-3.2,1.4c-0.5,0.1-1.1,0.2-1.7,0.2c-0.8,0-1.6-0.1-2.2-0.6 c-0.7-0.4-1.1-1.2-1.2-2c-0.2-1.1,0.8-2,1.6-2.9c0.3-0.3,0.6-0.6,0.9-0.9c0.2-0.3,0.5-0.4,0.9-0.3c0.3-0.1,0.7,0,1.1-0.1 c0.9-0.1,1.8-0.2,2.6,0.3C24.3,195.4,24.9,196.2,25.5,197z M24.2,198.1C24.2,198.1,24.1,198.1,24.2,198.1c-0.6-0.8-1-1.4-1.6-1.7 c-0.3-0.2-1-0.1-1.6-0.1c-0.4,0-0.7,0.1-1,0.1c-0.2,0.2-0.5,0.5-0.7,0.8c-0.4,0.4-1.1,1.1-1.1,1.4c0.1,0.5,0.3,0.7,0.5,0.8 c0.5,0.3,1.4,0.4,2.5,0.1c0.9-0.2,1.8-0.7,2.7-1.2C23.9,198.2,24.1,198.2,24.2,198.1z M374,111.9c4.5,1.9,10.3,1.5,14.5,0.8 c2-0.3,4.1-0.8,6-1.2c4.5-1,9.1-2.1,13.9-1.8c2.8,0.2,5.6,0.8,8.2,2.1c-0.5-0.8-1-1.7-1.5-2.5c-2.1-0.7-4.4-1.2-6.6-1.3 c-5-0.3-9.8,0.8-14.4,1.8c-1.9,0.4-4,0.9-5.9,1.2c-3.9,0.7-9.4,1.1-13.5-0.7c-11.6-5.1-21.3-12.6-28.1-21.8 c-10.6-14.3-15.8-31.2-15.5-50.1c0.1-3.8,2.1-6.5,4.6-7.9c-0.6-0.3-1.1-0.7-1.7-1c-2.6,1.8-4.6,4.8-4.6,8.9 c-0.3,19.3,5,36.6,15.8,51.2C352.1,99,362.1,106.7,374,111.9z M361.7,90.1c3.5,2.6,7,4.7,10.4,6.4c3,1.5,6.2,2,9.2,2 c3.1,0,6.2-0.6,9-1.2c5.8-1.2,11-1.8,15.9-1.9c-0.4-0.6-0.8-1.2-1.2-1.7c-4.7,0.2-9.7,0.8-15.1,1.9c-6.5,1.4-11.9,1.8-17-0.7 c-3.3-1.6-6.7-3.7-10.1-6.2c-12.1-8.9-17.7-19.6-16.9-32.7c0.3-5.4,2.3-8.6,6.1-10.1c1.5-0.6,3.1-1.1,4.6-1.6 c-0.6-0.4-1.2-0.9-1.8-1.3c-1.2,0.4-2.4,0.8-3.5,1.3c-4.5,1.8-6.9,5.6-7.2,11.7C343.3,69.6,349.1,80.8,361.7,90.1z M13.8,145.7 c-1.4,3.7-2.6,7.4-3.8,11.1c0.2-0.2,0.4-0.4,0.6-0.6C13.5,152.9,14.6,149,13.8,145.7z M32.1,174.5c3,0.5,6,0.8,8.9,1 c1.8,0.1,3.5,0.3,5.2,0.5c1.8,0.2,3.7-0.5,5.2-2c1.7-1.6,2.6-3.7,2.5-5.6c-0.9-14.9,3.2-29.3,7.2-43.2l1.2-4.4 c2.5-8.9,4.6-18.5,3.4-28.5c-0.4-3.3-1.3-6.5-2.1-9.6C63,80.5,62.4,78.3,62,76c-0.4-2.1-0.7-4.2-0.9-6.2c-0.5,0.6-1,1.1-1.6,1.7 c0.2,1.6,0.4,3.2,0.8,4.8c0.4,2.3,1.1,4.6,1.7,6.8c0.8,3.1,1.7,6.2,2,9.4c1.1,9.7-1,19.1-3.4,27.8l-1.2,4.4 c-4,14.1-8.1,28.6-7.2,43.8c0.1,1.4-0.7,3-1.9,4.3c-1.2,1.1-2.6,1.7-3.8,1.5c-1.8-0.2-3.5-0.4-5.3-0.5c-2.9-0.2-5.9-0.5-8.8-1 c-9.9-1.7-19.2,0-27.8,4.9c-0.2,0.8-0.3,1.6-0.5,2.3C12.7,174.7,22.1,172.8,32.1,174.5z" style="fill: rgb(248, 189, 51);"/></g></svg>