<svg xmlns="http://www.w3.org/2000/svg" xmlns:xlink="http://www.w3.org/1999/xlink" clip-rule="evenodd" fill-rule="evenodd" preserveAspectRatio="xMidYMid meet" stroke-linejoin="round" stroke-miterlimit="2" version="1.0" viewBox="0.0 0.0 1080.0 1080.0" zoomAndPan="magnify" style="fill: rgb(0, 0, 0);" original_string_length="3118"><g><g><path d="M0 0H1080V1080H0z" style="fill: none;"/><clipPath id="__id172_s4at1s31sn"><path d="M0 0H1080V1080H0z"/></clipPath><g clip-path="url(#__id172_s4at1s31sn)"><g id="__id173_s4at1s31sn"><path d="M3406.5,2317.93C3523.34,2351.03 3512.26,2541.64 3555.14,2620.9C3612.22,2726.39 3749.47,2695.38 3812.68,2785.37C3895.24,2902.88 3801.53,3028.11 3922.14,3149.96C3961.94,3190.18 4015.38,3215.74 4070.32,3228.01C4078.54,3229.84 4086.88,3231.42 4095.24,3232.5C4168.85,3242.05 4245.05,3232.6 4317.63,3249.68C4401,3269.31 4602.83,3368.73 4513.14,3482.03C4421.36,3597.97 4094.45,3570.66 3967.72,3553.91C3834.23,3536.25 3626.81,3576.81 3513.16,3506.56C3374.81,3421.04 3368.53,3084.94 3374.24,2952.24C3377.34,2880.11 3394.15,2809.21 3396.06,2736.89C3398.36,2649.78 3376.02,2552.95 3399.17,2467.89" transform="translate(-3432 -2318)" style="fill: rgb(249, 198, 175);"/></g><g id="__id174_s4at1s31sn"><path d="M3501.11,2719.09C3540.49,2795.01 3630.06,2839.61 3673.07,2915.83C3717.5,2994.59 3698.6,3089.16 3742.55,3169.66C3759.98,3201.59 3783.95,3228.08 3815.76,3246.15C3876.72,3280.76 4159.38,3345.39 4122.26,3454.52C4089.63,3550.43 3873.26,3518.72 3794.24,3516.95C3543.04,3511.29 3405.97,3601.99 3406.69,3305.95L3402.06,2378.12C3427.59,2400.88 3442.82,2428.62 3452.46,2459.04C3483.21,2512.14 3522.74,2582.98 3555.9,2613.6C3564.46,2621.5 3575.63,2625.63 3588.69,2628.46C3603.06,2631.57 3619.61,2633.03 3637.71,2635.18C3694.38,2641.93 3765.66,2655.11 3834.4,2739.66C3880.19,2795.97 3894.7,2866.24 3910.82,2935.36C3926.31,3001.8 3943.3,3067.2 3994.63,3116.56C4062.59,3181.88 4143.97,3209.43 4214.44,3248.26C4287.32,3288.42 4348.93,3340.14 4374.46,3453.66C4375.43,3457.97 4372.72,3462.25 4368.41,3463.22C4364.11,3464.19 4359.82,3461.48 4358.85,3457.17C4334.61,3349.38 4275.93,3300.41 4206.72,3262.28C4135.11,3222.81 4052.6,3194.48 3983.55,3128.09C3929.88,3076.5 3911.43,3008.45 3895.24,2939C3879.66,2872.23 3866.22,2804.15 3821.99,2749.75C3756.95,2669.77 3689.43,2657.45 3635.82,2651.07C3617.16,2648.85 3600.12,2647.3 3585.31,2644.09C3569.19,2640.61 3555.6,2635.1 3545.05,2625.36C3519.57,2601.83 3490.25,2555.07 3463.9,2510.34C3473.34,2572.71 3471.53,2640.2 3491.31,2696.5C3491.45,2696.91 3491.59,2697.32 3491.74,2697.73C3530.65,2714.78 3570.66,2730.4 3602.9,2757.49C3659.29,2804.86 3696.89,2867.4 3734.14,2930.26C3770.51,2991.61 3806.54,3053.25 3860.72,3100.36C3921.49,3153.2 3980.67,3185.85 4033.98,3219.93C4115.86,3272.28 4184.17,3327.92 4224.49,3461.21C4225.77,3465.44 4223.38,3469.91 4219.15,3471.18C4214.92,3472.46 4210.45,3470.07 4209.18,3465.84C4170.31,3337.36 4104.28,3283.87 4025.36,3233.41C3971.46,3198.95 3911.67,3165.87 3850.22,3112.44C3794.74,3064.2 3757.62,3001.24 3720.38,2938.42C3684.04,2877.11 3647.61,2815.94 3592.61,2769.74C3565.85,2747.27 3533.55,2733.03 3501.11,2719.09Z" transform="translate(-3432 -2318)" style="fill: rgb(236, 131, 86);"/></g></g></g></g></svg>