<svg xmlns="http://www.w3.org/2000/svg" xmlns:xlink="http://www.w3.org/1999/xlink" preserveAspectRatio="xMidYMid meet" version="1.0" viewBox="6.0 6.0 36.0 36.0" zoomAndPan="magnify" style="fill: rgb(242, 247, 255);" original_string_length="904"><g><path d="M0,0H48V48H0Z" style="fill: none;"/><g id="__id162_s4at1s31sn"><path d="M36,42H12a6.006,6.006,0,0,1-6-6V12a6.006,6.006,0,0,1,6-6H36a6.006,6.006,0,0,1,6,6V36A6.006,6.006,0,0,1,36,42ZM12,10a2,2,0,0,0-2,2V36a2,2,0,0,0,2,2H36a2,2,0,0,0,2-2V12a2,2,0,0,0-2-2Z" style="fill: inherit;"/></g><g id="__id163_s4at1s31sn"><path d="M16,34a2,2,0,0,1-2-2V22a2,2,0,0,1,4,0V32A2,2,0,0,1,16,34Z" style="fill: inherit;"/></g><g id="__id164_s4at1s31sn"><path d="M16,18.02A2.005,2.005,0,1,1,18,16v.02A2,2,0,0,1,16,18.02Z" style="fill: inherit;"/></g><g id="__id165_s4at1s31sn"><path d="M24,34a2,2,0,0,1-2-2V22a2,2,0,0,1,4,0V32A2,2,0,0,1,24,34Z" style="fill: inherit;"/></g><g id="__id166_s4at1s31sn"><path d="M32,34a2,2,0,0,1-2-2V26a2,2,0,0,0-4,0,2,2,0,0,1-4,0,6,6,0,0,1,12,0v6A2,2,0,0,1,32,34Z" style="fill: inherit;"/></g></g></svg>